STARTFONT 2.1
FONT -Fondu-Geneva-Medium-R-Normal--12-120-75-75-P-70-MacRoman-1
SIZE 12 75 75
FONTBOUNDINGBOX 14 15 -3 -3
COMMENT Created by Fondu from a mac NFNT/FONT resource
STARTPROPERTIES 17
FOUNDRY "Fondu"
FAMILY_NAME "Geneva"
WEIGHT_NAME "Medium"
SLANT "R"
SETWIDTH_NAME "Normal"
ADD_STYLE_NAME ""
PIXEL_SIZE 12
POINT_SIZE 120
RESOLUTION_X 75
RESOLUTION_Y 75
SPACING "P"
AVERAGE_WIDTH 70
CHARSET_REGISTRY "MacRoman"
CHARSET_ENCODING "1"
FONT_ASCENT 12
FONT_DESCENT 3
FACE_NAME "Geneva"
ENDPROPERTIES
CHARS 228
STARTCHAR eth
ENCODING 2
SWIDTH 500 0
DWIDTH 0 0
BBX 0 0 0 -3
BITMAP
ENDCHAR
STARTCHAR Lslash
ENCODING 3
SWIDTH 500 0
DWIDTH 0 0
BBX 0 0 0 -3
BITMAP
ENDCHAR
STARTCHAR lslash
ENCODING 4
SWIDTH 500 0
DWIDTH 0 0
BBX 0 0 0 -3
BITMAP
ENDCHAR
STARTCHAR Scaron
ENCODING 5
SWIDTH 500 0
DWIDTH 0 0
BBX 0 0 0 -3
BITMAP
ENDCHAR
STARTCHAR space
ENCODING 32
SWIDTH 333 0
DWIDTH 4 0
BBX 0 0 4 -3
BITMAP
ENDCHAR
STARTCHAR exclam
ENCODING 33
SWIDTH 303 0
DWIDTH 3 0
BBX 1 9 1 0
BITMAP
80
80
80
80
80
80
80
00
80
ENDCHAR
STARTCHAR quotedbl
ENCODING 34
SWIDTH 500 0
DWIDTH 5 0
BBX 3 2 1 7
BITMAP
A0
A0
ENDCHAR
STARTCHAR numbersign
ENCODING 35
SWIDTH 667 0
DWIDTH 9 0
BBX 7 5 1 4
BITMAP
14
7E
28
FC
50
ENDCHAR
STARTCHAR dollar
ENCODING 36
SWIDTH 667 0
DWIDTH 7 0
BBX 5 11 1 -1
BITMAP
20
70
A8
A0
60
30
28
28
A8
70
20
ENDCHAR
STARTCHAR percent
ENCODING 37
SWIDTH 905 0
DWIDTH 9 0
BBX 7 9 1 0
BITMAP
7E
92
94
68
10
2C
52
92
8C
ENDCHAR
STARTCHAR ampersand
ENCODING 38
SWIDTH 727 0
DWIDTH 9 0
BBX 8 9 0 0
BITMAP
30
48
50
20
50
8A
84
8A
71
ENDCHAR
STARTCHAR quotesingle
ENCODING 39
SWIDTH 303 0
DWIDTH 3 0
BBX 1 2 1 7
BITMAP
80
80
ENDCHAR
STARTCHAR parenleft
ENCODING 40
SWIDTH 447 0
DWIDTH 5 0
BBX 3 11 1 -1
BITMAP
20
40
40
80
80
80
80
80
40
40
20
ENDCHAR
STARTCHAR parenright
ENCODING 41
SWIDTH 447 0
DWIDTH 5 0
BBX 3 11 1 -1
BITMAP
80
40
40
20
20
20
20
20
40
40
80
ENDCHAR
STARTCHAR asterisk
ENCODING 42
SWIDTH 508 0
DWIDTH 8 0
BBX 5 5 1 3
BITMAP
20
A8
70
50
88
ENDCHAR
STARTCHAR plus
ENCODING 43
SWIDTH 667 0
DWIDTH 7 0
BBX 5 5 1 2
BITMAP
20
20
F8
20
20
ENDCHAR
STARTCHAR comma
ENCODING 44
SWIDTH 303 0
DWIDTH 4 0
BBX 2 3 1 -2
BITMAP
40
40
80
ENDCHAR
STARTCHAR hyphen
ENCODING 45
SWIDTH 379 0
DWIDTH 7 0
BBX 5 1 1 4
BITMAP
F8
ENDCHAR
STARTCHAR period
ENCODING 46
SWIDTH 303 0
DWIDTH 3 0
BBX 1 1 1 0
BITMAP
80
ENDCHAR
STARTCHAR slash
ENCODING 47
SWIDTH 538 0
DWIDTH 7 0
BBX 5 10 1 0
BITMAP
08
08
10
10
20
20
40
40
80
80
ENDCHAR
STARTCHAR zero
ENCODING 48
SWIDTH 667 0
DWIDTH 8 0
BBX 6 9 1 0
BITMAP
30
48
84
84
84
84
84
48
30
ENDCHAR
STARTCHAR one
ENCODING 49
SWIDTH 667 0
DWIDTH 8 0
BBX 2 9 3 0
BITMAP
40
C0
40
40
40
40
40
40
40
ENDCHAR
STARTCHAR two
ENCODING 50
SWIDTH 667 0
DWIDTH 8 0
BBX 6 9 1 0
BITMAP
38
44
84
04
08
10
20
40
FC
ENDCHAR
STARTCHAR three
ENCODING 51
SWIDTH 667 0
DWIDTH 8 0
BBX 6 9 1 0
BITMAP
FC
08
10
30
08
04
04
88
70
ENDCHAR
STARTCHAR four
ENCODING 52
SWIDTH 667 0
DWIDTH 8 0
BBX 7 9 1 0
BITMAP
04
0C
14
24
44
84
FE
04
04
ENDCHAR
STARTCHAR five
ENCODING 53
SWIDTH 667 0
DWIDTH 8 0
BBX 6 9 1 0
BITMAP
FC
80
80
F8
04
04
04
84
78
ENDCHAR
STARTCHAR six
ENCODING 54
SWIDTH 667 0
DWIDTH 8 0
BBX 6 9 1 0
BITMAP
38
40
80
F8
84
84
84
84
78
ENDCHAR
STARTCHAR seven
ENCODING 55
SWIDTH 667 0
DWIDTH 8 0
BBX 6 9 1 0
BITMAP
FC
04
08
08
10
10
20
20
20
ENDCHAR
STARTCHAR eight
ENCODING 56
SWIDTH 667 0
DWIDTH 8 0
BBX 6 9 1 0
BITMAP
78
84
84
78
84
84
84
84
78
ENDCHAR
STARTCHAR nine
ENCODING 57
SWIDTH 667 0
DWIDTH 8 0
BBX 6 9 1 0
BITMAP
78
84
84
84
84
7C
04
08
70
ENDCHAR
STARTCHAR colon
ENCODING 58
SWIDTH 303 0
DWIDTH 3 0
BBX 1 6 1 0
BITMAP
80
00
00
00
00
80
ENDCHAR
STARTCHAR semicolon
ENCODING 59
SWIDTH 303 0
DWIDTH 4 0
BBX 2 8 1 -2
BITMAP
40
00
00
00
00
40
40
80
ENDCHAR
STARTCHAR less
ENCODING 60
SWIDTH 667 0
DWIDTH 6 0
BBX 4 7 1 0
BITMAP
10
20
40
80
40
20
10
ENDCHAR
STARTCHAR equal
ENCODING 61
SWIDTH 667 0
DWIDTH 7 0
BBX 5 4 1 1
BITMAP
F8
00
00
F8
ENDCHAR
STARTCHAR greater
ENCODING 62
SWIDTH 667 0
DWIDTH 6 0
BBX 4 7 1 0
BITMAP
80
40
20
10
20
40
80
ENDCHAR
STARTCHAR question
ENCODING 63
SWIDTH 568 0
DWIDTH 8 0
BBX 6 9 1 0
BITMAP
78
84
84
08
10
20
20
00
20
ENDCHAR
STARTCHAR at
ENCODING 64
SWIDTH 871 0
DWIDTH 10 0
BBX 8 8 1 0
BITMAP
3C
42
9D
A5
A5
9E
40
38
ENDCHAR
STARTCHAR A
ENCODING 65
SWIDTH 727 0
DWIDTH 9 0
BBX 7 9 1 0
BITMAP
10
10
28
28
44
44
FE
82
82
ENDCHAR
STARTCHAR B
ENCODING 66
SWIDTH 636 0
DWIDTH 8 0
BBX 6 9 1 0
BITMAP
F8
84
84
F8
84
84
84
84
F8
ENDCHAR
STARTCHAR C
ENCODING 67
SWIDTH 651 0
DWIDTH 8 0
BBX 6 9 1 0
BITMAP
78
84
80
80
80
80
80
84
78
ENDCHAR
STARTCHAR D
ENCODING 68
SWIDTH 701 0
DWIDTH 8 0
BBX 6 9 1 0
BITMAP
F0
88
84
84
84
84
84
88
F0
ENDCHAR
STARTCHAR E
ENCODING 69
SWIDTH 576 0
DWIDTH 7 0
BBX 5 9 1 0
BITMAP
F8
80
80
80
F0
80
80
80
F8
ENDCHAR
STARTCHAR F
ENCODING 70
SWIDTH 553 0
DWIDTH 7 0
BBX 5 9 1 0
BITMAP
F8
80
80
80
F0
80
80
80
80
ENDCHAR
STARTCHAR G
ENCODING 71
SWIDTH 674 0
DWIDTH 8 0
BBX 6 9 1 0
BITMAP
78
84
80
80
9C
84
84
84
78
ENDCHAR
STARTCHAR H
ENCODING 72
SWIDTH 689 0
DWIDTH 8 0
BBX 6 9 1 0
BITMAP
84
84
84
84
FC
84
84
84
84
ENDCHAR
STARTCHAR I
ENCODING 73
SWIDTH 242 0
DWIDTH 5 0
BBX 1 9 2 0
BITMAP
80
80
80
80
80
80
80
80
80
ENDCHAR
STARTCHAR J
ENCODING 74
SWIDTH 492 0
DWIDTH 7 0
BBX 6 9 0 0
BITMAP
04
04
04
04
04
04
84
84
78
ENDCHAR
STARTCHAR K
ENCODING 75
SWIDTH 663 0
DWIDTH 8 0
BBX 6 9 1 0
BITMAP
84
88
90
A0
C0
A0
90
88
84
ENDCHAR
STARTCHAR L
ENCODING 76
SWIDTH 583 0
DWIDTH 7 0
BBX 5 9 1 0
BITMAP
80
80
80
80
80
80
80
80
F8
ENDCHAR
STARTCHAR M
ENCODING 77
SWIDTH 788 0
DWIDTH 9 0
BBX 7 9 1 0
BITMAP
82
C6
AA
92
82
82
82
82
82
ENDCHAR
STARTCHAR N
ENCODING 78
SWIDTH 708 0
DWIDTH 8 0
BBX 6 9 1 0
BITMAP
C4
C4
A4
A4
94
94
8C
8C
84
ENDCHAR
STARTCHAR O
ENCODING 79
SWIDTH 735 0
DWIDTH 8 0
BBX 6 9 1 0
BITMAP
78
84
84
84
84
84
84
84
78
ENDCHAR
STARTCHAR P
ENCODING 80
SWIDTH 583 0
DWIDTH 8 0
BBX 6 9 1 0
BITMAP
F8
84
84
84
F8
80
80
80
80
ENDCHAR
STARTCHAR Q
ENCODING 81
SWIDTH 735 0
DWIDTH 8 0
BBX 6 11 1 -2
BITMAP
78
84
84
84
84
84
84
84
78
10
0C
ENDCHAR
STARTCHAR R
ENCODING 82
SWIDTH 606 0
DWIDTH 8 0
BBX 6 9 1 0
BITMAP
F8
84
84
84
F8
90
88
84
84
ENDCHAR
STARTCHAR S
ENCODING 83
SWIDTH 606 0
DWIDTH 8 0
BBX 6 9 1 0
BITMAP
78
84
80
80
78
04
04
84
78
ENDCHAR
STARTCHAR T
ENCODING 84
SWIDTH 640 0
DWIDTH 8 0
BBX 7 9 0 0
BITMAP
FE
10
10
10
10
10
10
10
10
ENDCHAR
STARTCHAR U
ENCODING 85
SWIDTH 667 0
DWIDTH 8 0
BBX 6 9 1 0
BITMAP
84
84
84
84
84
84
84
84
78
ENDCHAR
STARTCHAR V
ENCODING 86
SWIDTH 727 0
DWIDTH 9 0
BBX 7 9 1 0
BITMAP
82
82
82
44
44
28
28
10
10
ENDCHAR
STARTCHAR W
ENCODING 87
SWIDTH 947 0
DWIDTH 11 0
BBX 9 9 1 0
BITMAP
8080
8080
8880
4900
5500
5500
2200
2200
2200
ENDCHAR
STARTCHAR X
ENCODING 88
SWIDTH 610 0
DWIDTH 7 0
BBX 5 9 1 0
BITMAP
88
88
50
50
20
50
50
88
88
ENDCHAR
STARTCHAR Y
ENCODING 89
SWIDTH 610 0
DWIDTH 7 0
BBX 5 9 1 0
BITMAP
88
88
88
50
50
20
20
20
20
ENDCHAR
STARTCHAR Z
ENCODING 90
SWIDTH 576 0
DWIDTH 7 0
BBX 5 9 1 0
BITMAP
F8
08
10
10
20
40
40
80
F8
ENDCHAR
STARTCHAR bracketleft
ENCODING 91
SWIDTH 447 0
DWIDTH 4 0
BBX 2 11 1 -1
BITMAP
C0
80
80
80
80
80
80
80
80
80
C0
ENDCHAR
STARTCHAR backslash
ENCODING 92
SWIDTH 538 0
DWIDTH 7 0
BBX 5 10 1 0
BITMAP
80
80
40
40
20
20
10
10
08
08
ENDCHAR
STARTCHAR bracketright
ENCODING 93
SWIDTH 447 0
DWIDTH 4 0
BBX 2 11 1 -1
BITMAP
C0
40
40
40
40
40
40
40
40
40
C0
ENDCHAR
STARTCHAR asciicircum
ENCODING 94
SWIDTH 667 0
DWIDTH 4 0
BBX 3 4 0 5
BITMAP
40
40
A0
A0
ENDCHAR
STARTCHAR underscore
ENCODING 95
SWIDTH 667 0
DWIDTH 8 0
BBX 8 1 0 0
BITMAP
FF
ENDCHAR
STARTCHAR grave
ENCODING 96
SWIDTH 591 0
DWIDTH 4 0
BBX 2 2 1 7
BITMAP
80
40
ENDCHAR
STARTCHAR a
ENCODING 97
SWIDTH 553 0
DWIDTH 7 0
BBX 5 7 1 0
BITMAP
70
88
08
78
88
88
78
ENDCHAR
STARTCHAR b
ENCODING 98
SWIDTH 610 0
DWIDTH 7 0
BBX 5 9 1 0
BITMAP
80
80
F0
88
88
88
88
88
F0
ENDCHAR
STARTCHAR c
ENCODING 99
SWIDTH 545 0
DWIDTH 7 0
BBX 5 7 1 0
BITMAP
70
88
80
80
80
88
70
ENDCHAR
STARTCHAR d
ENCODING 100
SWIDTH 602 0
DWIDTH 7 0
BBX 5 9 1 0
BITMAP
08
08
78
88
88
88
88
88
78
ENDCHAR
STARTCHAR e
ENCODING 101
SWIDTH 576 0
DWIDTH 7 0
BBX 5 7 1 0
BITMAP
70
88
88
F8
80
88
70
ENDCHAR
STARTCHAR f
ENCODING 102
SWIDTH 390 0
DWIDTH 6 0
BBX 4 9 1 0
BITMAP
30
40
E0
40
40
40
40
40
40
ENDCHAR
STARTCHAR g
ENCODING 103
SWIDTH 610 0
DWIDTH 7 0
BBX 5 10 1 -3
BITMAP
78
88
88
88
88
88
78
08
88
70
ENDCHAR
STARTCHAR h
ENCODING 104
SWIDTH 583 0
DWIDTH 7 0
BBX 5 9 1 0
BITMAP
80
80
B0
C8
88
88
88
88
88
ENDCHAR
STARTCHAR i
ENCODING 105
SWIDTH 235 0
DWIDTH 5 0
BBX 1 9 2 0
BITMAP
80
00
80
80
80
80
80
80
80
ENDCHAR
STARTCHAR j
ENCODING 106
SWIDTH 276 0
DWIDTH 6 0
BBX 3 12 1 -3
BITMAP
20
00
20
20
20
20
20
20
20
20
20
C0
ENDCHAR
STARTCHAR k
ENCODING 107
SWIDTH 538 0
DWIDTH 7 0
BBX 5 9 1 0
BITMAP
80
80
88
90
A0
C0
A0
90
88
ENDCHAR
STARTCHAR l
ENCODING 108
SWIDTH 235 0
DWIDTH 5 0
BBX 1 9 2 0
BITMAP
80
80
80
80
80
80
80
80
80
ENDCHAR
STARTCHAR m
ENCODING 109
SWIDTH 894 0
DWIDTH 11 0
BBX 9 7 1 0
BITMAP
B300
CC80
8880
8880
8880
8880
8880
ENDCHAR
STARTCHAR n
ENCODING 110
SWIDTH 583 0
DWIDTH 7 0
BBX 5 7 1 0
BITMAP
B0
C8
88
88
88
88
88
ENDCHAR
STARTCHAR o
ENCODING 111
SWIDTH 606 0
DWIDTH 7 0
BBX 5 7 1 0
BITMAP
70
88
88
88
88
88
70
ENDCHAR
STARTCHAR p
ENCODING 112
SWIDTH 602 0
DWIDTH 7 0
BBX 5 9 1 -2
BITMAP
F0
88
88
88
88
88
F0
80
80
ENDCHAR
STARTCHAR q
ENCODING 113
SWIDTH 602 0
DWIDTH 7 0
BBX 5 9 1 -2
BITMAP
78
88
88
88
88
88
78
08
08
ENDCHAR
STARTCHAR r
ENCODING 114
SWIDTH 386 0
DWIDTH 6 0
BBX 5 7 1 0
BITMAP
B8
C0
80
80
80
80
80
ENDCHAR
STARTCHAR s
ENCODING 115
SWIDTH 509 0
DWIDTH 7 0
BBX 5 7 1 0
BITMAP
70
88
80
70
08
88
70
ENDCHAR
STARTCHAR t
ENCODING 116
SWIDTH 443 0
DWIDTH 6 0
BBX 4 9 1 0
BITMAP
40
40
E0
40
40
40
40
40
30
ENDCHAR
STARTCHAR u
ENCODING 117
SWIDTH 583 0
DWIDTH 7 0
BBX 5 7 1 0
BITMAP
88
88
88
88
88
98
68
ENDCHAR
STARTCHAR v
ENCODING 118
SWIDTH 564 0
DWIDTH 7 0
BBX 5 7 1 0
BITMAP
88
88
88
50
50
20
20
ENDCHAR
STARTCHAR w
ENCODING 119
SWIDTH 780 0
DWIDTH 11 0
BBX 9 7 1 0
BITMAP
8880
8880
5500
5500
2200
2200
2200
ENDCHAR
STARTCHAR x
ENCODING 120
SWIDTH 530 0
DWIDTH 7 0
BBX 5 7 1 0
BITMAP
88
88
50
20
50
88
88
ENDCHAR
STARTCHAR y
ENCODING 121
SWIDTH 572 0
DWIDTH 7 0
BBX 6 10 0 -3
BITMAP
44
44
44
28
28
10
10
20
20
C0
ENDCHAR
STARTCHAR z
ENCODING 122
SWIDTH 553 0
DWIDTH 7 0
BBX 5 7 1 0
BITMAP
F8
08
10
20
40
80
F8
ENDCHAR
STARTCHAR braceleft
ENCODING 123
SWIDTH 451 0
DWIDTH 5 0
BBX 3 11 1 -1
BITMAP
20
40
40
40
40
80
40
40
40
40
20
ENDCHAR
STARTCHAR bar
ENCODING 124
SWIDTH 246 0
DWIDTH 3 0
BBX 1 11 1 -1
BITMAP
80
80
80
80
80
80
80
80
80
80
80
ENDCHAR
STARTCHAR braceright
ENCODING 125
SWIDTH 451 0
DWIDTH 5 0
BBX 3 11 1 -1
BITMAP
80
40
40
40
40
20
40
40
40
40
80
ENDCHAR
STARTCHAR asciitilde
ENCODING 126
SWIDTH 667 0
DWIDTH 8 0
BBX 6 2 1 7
BITMAP
64
98
ENDCHAR
STARTCHAR char007f
ENCODING 127
SWIDTH 500 0
DWIDTH 0 0
BBX 0 0 0 -3
BITMAP
ENDCHAR
STARTCHAR Adieresis
ENCODING 128
SWIDTH 727 0
DWIDTH 9 0
BBX 7 11 1 0
BITMAP
28
00
10
10
28
28
44
44
FE
82
82
ENDCHAR
STARTCHAR Aring
ENCODING 129
SWIDTH 727 0
DWIDTH 9 0
BBX 7 11 1 0
BITMAP
10
28
10
10
28
28
44
44
FE
82
82
ENDCHAR
STARTCHAR Ccedilla
ENCODING 130
SWIDTH 651 0
DWIDTH 8 0
BBX 6 12 1 -3
BITMAP
78
84
80
80
80
80
80
84
78
10
08
10
ENDCHAR
STARTCHAR Eacute
ENCODING 131
SWIDTH 576 0
DWIDTH 7 0
BBX 5 12 1 0
BITMAP
10
20
00
F8
80
80
80
F0
80
80
80
F8
ENDCHAR
STARTCHAR Ntilde
ENCODING 132
SWIDTH 708 0
DWIDTH 8 0
BBX 6 12 1 0
BITMAP
64
98
00
C4
C4
A4
A4
94
94
8C
8C
84
ENDCHAR
STARTCHAR Odieresis
ENCODING 133
SWIDTH 735 0
DWIDTH 8 0
BBX 6 11 1 0
BITMAP
48
00
78
84
84
84
84
84
84
84
78
ENDCHAR
STARTCHAR Udieresis
ENCODING 134
SWIDTH 667 0
DWIDTH 8 0
BBX 6 11 1 0
BITMAP
48
00
84
84
84
84
84
84
84
84
78
ENDCHAR
STARTCHAR aacute
ENCODING 135
SWIDTH 553 0
DWIDTH 7 0
BBX 5 10 1 0
BITMAP
20
40
00
70
88
78
88
88
88
78
ENDCHAR
STARTCHAR agrave
ENCODING 136
SWIDTH 553 0
DWIDTH 7 0
BBX 5 10 1 0
BITMAP
20
10
00
70
88
78
88
88
88
78
ENDCHAR
STARTCHAR acircumflex
ENCODING 137
SWIDTH 553 0
DWIDTH 7 0
BBX 5 10 1 0
BITMAP
20
50
00
70
88
78
88
88
88
78
ENDCHAR
STARTCHAR adieresis
ENCODING 138
SWIDTH 553 0
DWIDTH 7 0
BBX 5 9 1 0
BITMAP
50
00
70
88
78
88
88
88
78
ENDCHAR
STARTCHAR atilde
ENCODING 139
SWIDTH 553 0
DWIDTH 7 0
BBX 5 10 1 0
BITMAP
68
B0
00
70
88
78
88
88
88
78
ENDCHAR
STARTCHAR aring
ENCODING 140
SWIDTH 553 0
DWIDTH 7 0
BBX 5 12 1 0
BITMAP
60
90
90
60
00
70
88
78
88
88
88
78
ENDCHAR
STARTCHAR ccedilla
ENCODING 141
SWIDTH 545 0
DWIDTH 7 0
BBX 5 9 1 -2
BITMAP
70
88
80
80
80
88
70
20
40
ENDCHAR
STARTCHAR eacute
ENCODING 142
SWIDTH 576 0
DWIDTH 7 0
BBX 5 10 1 0
BITMAP
20
40
00
70
88
88
F8
80
88
70
ENDCHAR
STARTCHAR egrave
ENCODING 143
SWIDTH 576 0
DWIDTH 7 0
BBX 5 10 1 0
BITMAP
40
20
00
70
88
88
F8
80
88
70
ENDCHAR
STARTCHAR ecircumflex
ENCODING 144
SWIDTH 576 0
DWIDTH 7 0
BBX 5 10 1 0
BITMAP
20
50
00
70
88
88
F8
80
88
70
ENDCHAR
STARTCHAR edieresis
ENCODING 145
SWIDTH 576 0
DWIDTH 7 0
BBX 5 9 1 0
BITMAP
50
00
70
88
88
F8
80
88
70
ENDCHAR
STARTCHAR iacute
ENCODING 146
SWIDTH 235 0
DWIDTH 5 0
BBX 2 10 2 0
BITMAP
40
80
00
80
80
80
80
80
80
80
ENDCHAR
STARTCHAR igrave
ENCODING 147
SWIDTH 235 0
DWIDTH 5 0
BBX 2 10 1 0
BITMAP
80
40
00
40
40
40
40
40
40
40
ENDCHAR
STARTCHAR icircumflex
ENCODING 148
SWIDTH 235 0
DWIDTH 5 0
BBX 3 10 1 0
BITMAP
40
A0
00
40
40
40
40
40
40
40
ENDCHAR
STARTCHAR idieresis
ENCODING 149
SWIDTH 235 0
DWIDTH 5 0
BBX 3 9 1 0
BITMAP
A0
00
40
40
40
40
40
40
40
ENDCHAR
STARTCHAR ntilde
ENCODING 150
SWIDTH 583 0
DWIDTH 7 0
BBX 5 10 1 0
BITMAP
68
B0
00
B0
C8
88
88
88
88
88
ENDCHAR
STARTCHAR oacute
ENCODING 151
SWIDTH 606 0
DWIDTH 7 0
BBX 5 10 1 0
BITMAP
10
20
00
70
88
88
88
88
88
70
ENDCHAR
STARTCHAR ograve
ENCODING 152
SWIDTH 606 0
DWIDTH 7 0
BBX 5 10 1 0
BITMAP
40
20
00
70
88
88
88
88
88
70
ENDCHAR
STARTCHAR ocircumflex
ENCODING 153
SWIDTH 606 0
DWIDTH 7 0
BBX 5 10 1 0
BITMAP
20
50
00
70
88
88
88
88
88
70
ENDCHAR
STARTCHAR odieresis
ENCODING 154
SWIDTH 606 0
DWIDTH 7 0
BBX 5 9 1 0
BITMAP
50
00
70
88
88
88
88
88
70
ENDCHAR
STARTCHAR otilde
ENCODING 155
SWIDTH 606 0
DWIDTH 7 0
BBX 5 10 1 0
BITMAP
68
B0
00
70
88
88
88
88
88
70
ENDCHAR
STARTCHAR uacute
ENCODING 156
SWIDTH 583 0
DWIDTH 7 0
BBX 5 10 1 0
BITMAP
10
20
00
88
88
88
88
88
98
68
ENDCHAR
STARTCHAR ugrave
ENCODING 157
SWIDTH 583 0
DWIDTH 7 0
BBX 5 10 1 0
BITMAP
40
20
00
88
88
88
88
88
98
68
ENDCHAR
STARTCHAR ucircumflex
ENCODING 158
SWIDTH 583 0
DWIDTH 7 0
BBX 5 10 1 0
BITMAP
20
50
00
88
88
88
88
88
98
68
ENDCHAR
STARTCHAR udieresis
ENCODING 159
SWIDTH 583 0
DWIDTH 7 0
BBX 5 9 1 0
BITMAP
50
00
88
88
88
88
88
98
68
ENDCHAR
STARTCHAR dagger
ENCODING 160
SWIDTH 667 0
DWIDTH 5 0
BBX 5 9 0 0
BITMAP
20
20
F8
20
20
20
20
20
20
ENDCHAR
STARTCHAR degree
ENCODING 161
SWIDTH 341 0
DWIDTH 6 0
BBX 4 4 1 5
BITMAP
60
90
90
60
ENDCHAR
STARTCHAR cent
ENCODING 162
SWIDTH 667 0
DWIDTH 7 0
BBX 5 9 1 -1
BITMAP
20
70
A8
A0
A0
A0
A8
70
20
ENDCHAR
STARTCHAR sterling
ENCODING 163
SWIDTH 667 0
DWIDTH 8 0
BBX 6 9 1 0
BITMAP
18
20
20
20
F0
40
40
40
FC
ENDCHAR
STARTCHAR section
ENCODING 164
SWIDTH 667 0
DWIDTH 8 0
BBX 6 11 1 -2
BITMAP
78
84
80
60
98
84
64
18
04
84
78
ENDCHAR
STARTCHAR bullet
ENCODING 165
SWIDTH 667 0
DWIDTH 8 0
BBX 6 6 1 1
BITMAP
78
FC
FC
FC
FC
78
ENDCHAR
STARTCHAR paragraph
ENCODING 166
SWIDTH 667 0
DWIDTH 8 0
BBX 7 11 1 -2
BITMAP
7E
F4
F4
F4
74
14
14
14
14
14
14
ENDCHAR
STARTCHAR germandbls
ENCODING 167
SWIDTH 591 0
DWIDTH 9 0
BBX 6 9 2 0
BITMAP
70
88
90
A0
A0
98
84
84
B8
ENDCHAR
STARTCHAR registered
ENCODING 168
SWIDTH 879 0
DWIDTH 10 0
BBX 8 8 1 0
BITMAP
3C
42
B9
A5
B9
A5
42
3C
ENDCHAR
STARTCHAR copyright
ENCODING 169
SWIDTH 879 0
DWIDTH 10 0
BBX 8 8 1 0
BITMAP
3C
42
99
A1
A1
99
42
3C
ENDCHAR
STARTCHAR trademark
ENCODING 170
SWIDTH 758 0
DWIDTH 11 0
BBX 9 4 1 5
BITMAP
E880
4D80
4A80
4880
ENDCHAR
STARTCHAR acute
ENCODING 171
SWIDTH 591 0
DWIDTH 4 0
BBX 2 2 1 7
BITMAP
40
80
ENDCHAR
STARTCHAR dieresis
ENCODING 172
SWIDTH 591 0
DWIDTH 5 0
BBX 3 1 1 8
BITMAP
A0
ENDCHAR
STARTCHAR notequal
ENCODING 173
SWIDTH 667 0
DWIDTH 8 0
BBX 6 6 1 0
BITMAP
08
FC
10
20
FC
40
ENDCHAR
STARTCHAR AE
ENCODING 174
SWIDTH 992 0
DWIDTH 12 0
BBX 10 9 1 0
BITMAP
0FC0
1400
1400
2400
3F80
4400
4400
8400
87C0
ENDCHAR
STARTCHAR Oslash
ENCODING 175
SWIDTH 735 0
DWIDTH 8 0
BBX 8 9 0 0
BITMAP
3D
42
46
4A
52
62
42
C2
3C
ENDCHAR
STARTCHAR infinity
ENCODING 176
SWIDTH 667 0
DWIDTH 11 0
BBX 9 5 1 1
BITMAP
6300
9480
8880
9480
6300
ENDCHAR
STARTCHAR plusminus
ENCODING 177
SWIDTH 667 0
DWIDTH 7 0
BBX 5 7 1 0
BITMAP
20
20
F8
20
20
00
F8
ENDCHAR
STARTCHAR lessequal
ENCODING 178
SWIDTH 667 0
DWIDTH 6 0
BBX 4 7 1 0
BITMAP
20
40
80
40
20
00
F0
ENDCHAR
STARTCHAR greaterequal
ENCODING 179
SWIDTH 667 0
DWIDTH 6 0
BBX 4 7 1 0
BITMAP
40
20
10
20
40
00
F0
ENDCHAR
STARTCHAR yen
ENCODING 180
SWIDTH 667 0
DWIDTH 7 0
BBX 5 9 1 0
BITMAP
88
50
F8
20
F8
20
20
20
20
ENDCHAR
STARTCHAR mu
ENCODING 181
SWIDTH 591 0
DWIDTH 9 0
BBX 8 9 0 -2
BITMAP
11
11
22
22
22
44
7A
80
80
ENDCHAR
STARTCHAR partialdiff
ENCODING 182
SWIDTH 651 0
DWIDTH 7 0
BBX 5 9 1 0
BITMAP
30
08
38
48
88
88
88
90
60
ENDCHAR
STARTCHAR summation
ENCODING 183
SWIDTH 606 0
DWIDTH 8 0
BBX 6 11 1 -2
BITMAP
FC
80
40
20
10
08
10
20
40
80
FC
ENDCHAR
STARTCHAR product
ENCODING 184
SWIDTH 803 0
DWIDTH 9 0
BBX 7 9 1 0
BITMAP
FE
44
44
44
44
44
44
44
44
ENDCHAR
STARTCHAR pi
ENCODING 185
SWIDTH 689 0
DWIDTH 10 0
BBX 7 7 2 0
BITMAP
FE
44
44
44
44
44
44
ENDCHAR
STARTCHAR integral
ENCODING 186
SWIDTH 523 0
DWIDTH 5 0
BBX 3 12 1 -3
BITMAP
20
40
40
40
40
40
40
40
40
40
40
80
ENDCHAR
STARTCHAR ordfeminine
ENCODING 187
SWIDTH 333 0
DWIDTH 6 0
BBX 4 5 1 4
BITMAP
60
10
70
90
70
ENDCHAR
STARTCHAR ordmasculine
ENCODING 188
SWIDTH 371 0
DWIDTH 6 0
BBX 4 5 1 4
BITMAP
60
90
90
90
60
ENDCHAR
STARTCHAR Omega
ENCODING 189
SWIDTH 803 0
DWIDTH 10 0
BBX 8 9 1 0
BITMAP
3C
42
81
81
81
81
42
24
E7
ENDCHAR
STARTCHAR ae
ENCODING 190
SWIDTH 928 0
DWIDTH 11 0
BBX 9 7 1 0
BITMAP
7700
8880
0880
7F80
8800
8880
7700
ENDCHAR
STARTCHAR oslash
ENCODING 191
SWIDTH 606 0
DWIDTH 7 0
BBX 7 7 0 0
BITMAP
3A
44
4C
54
64
44
B8
ENDCHAR
STARTCHAR questiondown
ENCODING 192
SWIDTH 568 0
DWIDTH 8 0
BBX 5 9 1 0
BITMAP
20
00
20
20
40
80
88
88
70
ENDCHAR
STARTCHAR exclamdown
ENCODING 193
SWIDTH 303 0
DWIDTH 4 0
BBX 1 9 2 0
BITMAP
80
00
80
80
80
80
80
80
80
ENDCHAR
STARTCHAR logicalnot
ENCODING 194
SWIDTH 667 0
DWIDTH 7 0
BBX 5 3 1 2
BITMAP
F8
08
08
ENDCHAR
STARTCHAR radical
ENCODING 195
SWIDTH 898 0
DWIDTH 10 0
BBX 8 10 1 0
BITMAP
03
02
04
04
08
08
90
50
20
20
ENDCHAR
STARTCHAR florin
ENCODING 196
SWIDTH 667 0
DWIDTH 5 0
BBX 3 12 1 -3
BITMAP
20
40
40
E0
40
40
40
40
40
40
40
80
ENDCHAR
STARTCHAR approxequal
ENCODING 197
SWIDTH 667 0
DWIDTH 8 0
BBX 6 5 1 1
BITMAP
64
98
00
64
98
ENDCHAR
STARTCHAR Delta
ENCODING 198
SWIDTH 758 0
DWIDTH 9 0
BBX 7 8 1 0
BITMAP
10
10
28
28
44
44
82
FE
ENDCHAR
STARTCHAR guillemotleft
ENCODING 199
SWIDTH 534 0
DWIDTH 8 0
BBX 6 5 1 0
BITMAP
24
48
90
48
24
ENDCHAR
STARTCHAR guillemotright
ENCODING 200
SWIDTH 534 0
DWIDTH 8 0
BBX 6 5 1 0
BITMAP
90
48
24
48
90
ENDCHAR
STARTCHAR ellipsis
ENCODING 201
SWIDTH 1030 0
DWIDTH 10 0
BBX 7 1 2 0
BITMAP
92
ENDCHAR
STARTCHAR nbspace
ENCODING 202
SWIDTH 667 0
DWIDTH 8 0
BBX 0 0 8 -3
BITMAP
ENDCHAR
STARTCHAR Agrave
ENCODING 203
SWIDTH 727 0
DWIDTH 9 0
BBX 7 12 1 0
BITMAP
20
10
00
10
10
28
28
44
44
FE
82
82
ENDCHAR
STARTCHAR Atilde
ENCODING 204
SWIDTH 727 0
DWIDTH 9 0
BBX 7 12 1 0
BITMAP
32
4C
00
10
10
28
28
44
44
FE
82
82
ENDCHAR
STARTCHAR Otilde
ENCODING 205
SWIDTH 735 0
DWIDTH 8 0
BBX 6 12 1 0
BITMAP
64
98
00
78
84
84
84
84
84
84
84
78
ENDCHAR
STARTCHAR OE
ENCODING 206
SWIDTH 1091 0
DWIDTH 12 0
BBX 10 9 1 0
BITMAP
7BC0
8400
8400
8400
8780
8400
8400
8400
7BC0
ENDCHAR
STARTCHAR oe
ENCODING 207
SWIDTH 996 0
DWIDTH 11 0
BBX 9 7 1 0
BITMAP
7700
8880
8880
8F80
8800
8880
7700
ENDCHAR
STARTCHAR endash
ENCODING 208
SWIDTH 515 0
DWIDTH 6 0
BBX 4 1 1 3
BITMAP
F0
ENDCHAR
STARTCHAR emdash
ENCODING 209
SWIDTH 1030 0
DWIDTH 9 0
BBX 7 1 1 3
BITMAP
FE
ENDCHAR
STARTCHAR quotedblleft
ENCODING 210
SWIDTH 492 0
DWIDTH 7 0
BBX 5 3 1 7
BITMAP
48
90
90
ENDCHAR
STARTCHAR quotedblright
ENCODING 211
SWIDTH 492 0
DWIDTH 7 0
BBX 5 3 1 7
BITMAP
48
48
90
ENDCHAR
STARTCHAR quoteleft
ENCODING 212
SWIDTH 303 0
DWIDTH 4 0
BBX 2 3 1 7
BITMAP
40
80
80
ENDCHAR
STARTCHAR quoteright
ENCODING 213
SWIDTH 303 0
DWIDTH 4 0
BBX 2 3 1 7
BITMAP
40
40
80
ENDCHAR
STARTCHAR divide
ENCODING 214
SWIDTH 667 0
DWIDTH 7 0
BBX 5 5 1 2
BITMAP
20
00
F8
00
20
ENDCHAR
STARTCHAR lozenge
ENCODING 215
SWIDTH 667 0
DWIDTH 9 0
BBX 7 8 1 0
BITMAP
10
28
44
82
82
44
28
10
ENDCHAR
STARTCHAR ydieresis
ENCODING 216
SWIDTH 572 0
DWIDTH 8 0
BBX 6 12 0 -3
BITMAP
28
00
44
44
44
28
28
10
10
20
20
C0
ENDCHAR
STARTCHAR Ydieresis
ENCODING 217
SWIDTH 610 0
DWIDTH 7 0
BBX 5 11 1 0
BITMAP
50
00
88
88
88
50
50
20
20
20
20
ENDCHAR
STARTCHAR fraction
ENCODING 218
SWIDTH 102 0
DWIDTH 2 0
BBX 8 10 -3 0
BITMAP
01
02
04
04
08
10
20
20
40
80
ENDCHAR
STARTCHAR currency
ENCODING 219
SWIDTH 744 0
DWIDTH 9 0
BBX 8 8 1 0
BITMAP
1E
21
40
FC
40
FC
21
1E
ENDCHAR
STARTCHAR guilsinglleft
ENCODING 220
SWIDTH 322 0
DWIDTH 5 0
BBX 3 5 1 1
BITMAP
20
40
80
40
20
ENDCHAR
STARTCHAR guilsinglright
ENCODING 221
SWIDTH 322 0
DWIDTH 5 0
BBX 3 5 1 1
BITMAP
80
40
20
40
80
ENDCHAR
STARTCHAR fi
ENCODING 222
SWIDTH 599 0
DWIDTH 7 0
BBX 6 9 0 0
BITMAP
30
40
FC
44
44
44
44
44
44
ENDCHAR
STARTCHAR fl
ENCODING 223
SWIDTH 599 0
DWIDTH 7 0
BBX 6 9 0 0
BITMAP
3C
44
F4
44
44
44
44
44
44
ENDCHAR
STARTCHAR daggerdbl
ENCODING 224
SWIDTH 667 0
DWIDTH 5 0
BBX 5 11 0 -2
BITMAP
20
20
F8
20
20
20
20
20
F8
20
20
ENDCHAR
STARTCHAR periodcentered
ENCODING 225
SWIDTH 667 0
DWIDTH 5 0
BBX 1 1 2 3
BITMAP
80
ENDCHAR
STARTCHAR quotesinglbase
ENCODING 226
SWIDTH 303 0
DWIDTH 4 0
BBX 2 3 1 -2
BITMAP
40
40
80
ENDCHAR
STARTCHAR quotedblbase
ENCODING 227
SWIDTH 492 0
DWIDTH 7 0
BBX 5 3 1 -2
BITMAP
48
48
90
ENDCHAR
STARTCHAR perthousand
ENCODING 228
SWIDTH 1311 0
DWIDTH 15 0
BBX 14 9 0 0
BITMAP
6100
9200
9400
9400
6B18
14A4
14A4
24A4
4318
ENDCHAR
STARTCHAR Acircumflex
ENCODING 229
SWIDTH 727 0
DWIDTH 9 0
BBX 7 12 1 0
BITMAP
10
28
00
10
10
28
28
44
44
FE
82
82
ENDCHAR
STARTCHAR Ecircumflex
ENCODING 230
SWIDTH 576 0
DWIDTH 7 0
BBX 5 12 1 0
BITMAP
20
50
00
F8
80
80
80
F0
80
80
80
F8
ENDCHAR
STARTCHAR Aacute
ENCODING 231
SWIDTH 727 0
DWIDTH 9 0
BBX 7 12 1 0
BITMAP
08
10
00
10
10
28
28
44
44
FE
82
82
ENDCHAR
STARTCHAR Edieresis
ENCODING 232
SWIDTH 576 0
DWIDTH 7 0
BBX 5 11 1 0
BITMAP
50
00
F8
80
80
80
F0
80
80
80
F8
ENDCHAR
STARTCHAR Egrave
ENCODING 233
SWIDTH 576 0
DWIDTH 7 0
BBX 5 12 1 0
BITMAP
40
20
00
F8
80
80
80
F0
80
80
80
F8
ENDCHAR
STARTCHAR Iacute
ENCODING 234
SWIDTH 242 0
DWIDTH 5 0
BBX 2 12 2 0
BITMAP
40
80
00
80
80
80
80
80
80
80
80
80
ENDCHAR
STARTCHAR Icircumflex
ENCODING 235
SWIDTH 242 0
DWIDTH 5 0
BBX 3 12 1 0
BITMAP
40
A0
00
40
40
40
40
40
40
40
40
40
ENDCHAR
STARTCHAR Idieresis
ENCODING 236
SWIDTH 242 0
DWIDTH 5 0
BBX 3 11 1 0
BITMAP
A0
00
40
40
40
40
40
40
40
40
40
ENDCHAR
STARTCHAR Igrave
ENCODING 237
SWIDTH 242 0
DWIDTH 5 0
BBX 2 12 1 0
BITMAP
80
40
00
40
40
40
40
40
40
40
40
40
ENDCHAR
STARTCHAR Oacute
ENCODING 238
SWIDTH 735 0
DWIDTH 8 0
BBX 6 12 1 0
BITMAP
10
20
00
78
84
84
84
84
84
84
84
78
ENDCHAR
STARTCHAR Ocircumflex
ENCODING 239
SWIDTH 735 0
DWIDTH 8 0
BBX 6 12 1 0
BITMAP
20
50
00
78
84
84
84
84
84
84
84
78
ENDCHAR
STARTCHAR apple
ENCODING 240
SWIDTH 790 0
DWIDTH 11 0
BBX 9 11 1 0
BITMAP
0600
0C00
0800
7700
FF80
FE00
FE00
FF80
FF80
7F00
3600
ENDCHAR
STARTCHAR Ograve
ENCODING 241
SWIDTH 735 0
DWIDTH 8 0
BBX 6 12 1 0
BITMAP
20
10
00
78
84
84
84
84
84
84
84
78
ENDCHAR
STARTCHAR Uacute
ENCODING 242
SWIDTH 667 0
DWIDTH 8 0
BBX 6 12 1 0
BITMAP
10
20
00
84
84
84
84
84
84
84
84
78
ENDCHAR
STARTCHAR Ucircumflex
ENCODING 243
SWIDTH 667 0
DWIDTH 8 0
BBX 6 12 1 0
BITMAP
20
50
00
84
84
84
84
84
84
84
84
78
ENDCHAR
STARTCHAR Ugrave
ENCODING 244
SWIDTH 667 0
DWIDTH 8 0
BBX 6 12 1 0
BITMAP
20
10
00
84
84
84
84
84
84
84
84
78
ENDCHAR
STARTCHAR dotlessi
ENCODING 245
SWIDTH 235 0
DWIDTH 5 0
BBX 1 7 2 0
BITMAP
80
80
80
80
80
80
80
ENDCHAR
STARTCHAR circumflex
ENCODING 246
SWIDTH 591 0
DWIDTH 7 0
BBX 3 2 2 8
BITMAP
40
A0
ENDCHAR
STARTCHAR tilde
ENCODING 247
SWIDTH 591 0
DWIDTH 7 0
BBX 5 2 1 8
BITMAP
68
B0
ENDCHAR
STARTCHAR macron
ENCODING 248
SWIDTH 591 0
DWIDTH 7 0
BBX 3 1 2 8
BITMAP
E0
ENDCHAR
STARTCHAR breve
ENCODING 249
SWIDTH 591 0
DWIDTH 7 0
BBX 5 2 1 8
BITMAP
88
70
ENDCHAR
STARTCHAR dotaccent
ENCODING 250
SWIDTH 591 0
DWIDTH 7 0
BBX 1 1 3 8
BITMAP
80
ENDCHAR
STARTCHAR ring
ENCODING 251
SWIDTH 591 0
DWIDTH 7 0
BBX 3 3 2 8
BITMAP
40
A0
40
ENDCHAR
STARTCHAR cedilla
ENCODING 252
SWIDTH 591 0
DWIDTH 7 0
BBX 2 3 3 -3
BITMAP
80
40
C0
ENDCHAR
STARTCHAR hungarumlaut
ENCODING 253
SWIDTH 591 0
DWIDTH 7 0
BBX 4 2 2 8
BITMAP
50
A0
ENDCHAR
STARTCHAR ogonek
ENCODING 254
SWIDTH 591 0
DWIDTH 7 0
BBX 2 3 2 -3
BITMAP
40
80
40
ENDCHAR
STARTCHAR caron
ENCODING 255
SWIDTH 591 0
DWIDTH 7 0
BBX 3 2 2 8
BITMAP
A0
40
ENDCHAR
ENDFONT
